<svg width="24" height="24" viewBox="0 0 24 24" fill="none" xmlns="http://www.w3.org/2000/svg">
<g id="icons8-apple-logo 1" clip-path="url(#clip0_45_1202)">
<g id="Vector">
<path d="M17.4845 -0.000586885C16.1232 0.091288 14.6663 0.901288 13.7645 1.99441C12.9751 2.95629 12.3132 4.36816 12.5645 5.83441C12.3395 5.76504 12.1351 5.75754 11.8895 5.66941C11.2201 5.43129 10.4551 5.17441 9.50445 5.17441C7.61633 5.17441 5.6832 6.29754 4.46445 8.17441C2.6907 10.9007 3.04695 15.6988 5.73945 19.7994C6.21383 20.5194 6.76695 21.305 7.44945 21.9294C8.13195 22.5538 8.95695 23.03 9.92445 23.0394C10.7513 23.0488 11.327 22.7732 11.8445 22.5444C12.362 22.3157 12.8438 22.1132 13.7495 22.1094C13.7551 22.1094 13.7588 22.1094 13.7645 22.1094C14.6663 22.1019 15.1332 22.3007 15.6395 22.5294C16.1457 22.7582 16.7157 23.0469 17.5445 23.0394C18.5307 23.0319 19.3688 22.4919 20.0645 21.8244C20.7601 21.1569 21.332 20.3375 21.8045 19.6194C22.4813 18.5882 22.7532 18.0257 23.2745 16.8744C23.3288 16.7544 23.3307 16.6157 23.2782 16.4938C23.2276 16.3719 23.1282 16.2763 23.0045 16.2294C21.2982 15.5844 20.3251 14.075 20.1845 12.4794C20.0438 10.8838 20.7188 9.24129 22.4195 8.30941C22.5451 8.24191 22.6332 8.12379 22.6632 7.98504C22.6913 7.84629 22.6576 7.70004 22.5695 7.58941C21.3488 6.07254 19.6313 5.17441 17.9495 5.17441C16.877 5.17441 16.0895 5.42754 15.4445 5.66941C15.3376 5.71066 15.2588 5.70691 15.1595 5.74441C15.8138 5.39941 16.3913 4.92129 16.8245 4.36441C17.612 3.35379 18.2195 1.91566 17.9945 0.404413C17.957 0.156913 17.7338 -0.0193369 17.4845 -0.000586885ZM16.9745 1.13941C16.9426 2.10879 16.6107 3.05754 16.0595 3.76441C15.482 4.50691 14.5107 5.02066 13.5695 5.17441C13.5863 4.24254 13.9538 3.27691 14.5145 2.59441C15.1032 1.88191 16.0782 1.36816 16.9745 1.13941ZM9.50445 6.13441C9.92445 6.13441 10.8995 6.33504 11.5595 6.56941C12.2195 6.80379 12.9151 7.07941 13.7345 7.07941C14.5351 7.07941 15.1688 6.80191 15.7895 6.56941C16.4101 6.33691 17.0288 6.13441 17.9495 6.13441C19.1513 6.13441 20.4507 6.75879 21.4745 7.84441C19.8357 9.00129 19.0688 10.805 19.2245 12.5544C19.3801 14.3225 20.4451 16.0007 22.1945 16.8744C22.1919 16.8799 22.1894 16.8853 22.187 16.8907C21.8124 17.7066 21.5626 18.2507 21.0095 19.0944C20.5501 19.7938 20.0045 20.5588 19.4045 21.1344C18.8045 21.71 18.1688 22.0738 17.5295 22.0794C16.9126 22.085 16.562 21.9013 16.0295 21.6594C15.497 21.4175 14.8088 21.14 13.7495 21.1494C12.692 21.155 11.9945 21.4213 11.4545 21.6594C10.9145 21.8975 10.5601 22.085 9.93945 22.0794C9.2832 22.0738 8.67383 21.755 8.09445 21.2244C7.51508 20.6938 6.99195 19.97 6.53445 19.2744C4.01445 15.4344 3.81195 10.9232 5.25945 8.69941C6.3207 7.06629 9.08445 6.13441 9.50445 6.13441Z" fill="black"/>
<path d="M9.50445 6.13441C9.92445 6.13441 10.8995 6.33504 11.5595 6.56941C12.2195 6.80379 12.9151 7.07941 13.7345 7.07941C14.5351 7.07941 15.1688 6.80191 15.7895 6.56941C16.4101 6.33691 17.0288 6.13441 17.9495 6.13441C19.1513 6.13441 20.4507 6.75879 21.4745 7.84441C19.8357 9.00129 19.0688 10.805 19.2245 12.5544C19.3801 14.3225 20.4451 16.0007 22.1945 16.8744L22.187 16.8907C21.8124 17.7066 21.5626 18.2507 21.0095 19.0944C20.5501 19.7938 20.0045 20.5588 19.4045 21.1344C18.8045 21.71 18.1688 22.0738 17.5295 22.0794C16.9126 22.085 16.562 21.9013 16.0295 21.6594C15.497 21.4175 14.8088 21.14 13.7495 21.1494C12.692 21.155 11.9945 21.4213 11.4545 21.6594C10.9145 21.8975 10.5601 22.085 9.93945 22.0794C9.2832 22.0738 8.67383 21.755 8.09445 21.2244C7.51508 20.6938 6.99195 19.97 6.53445 19.2744C4.01445 15.4344 3.81195 10.9232 5.25945 8.69941C6.3207 7.06629 9.08445 6.13441 9.50445 6.13441Z" fill="black"/>
<path d="M16.9745 1.13941C16.9426 2.10879 16.6107 3.05754 16.0595 3.76441C15.482 4.50691 14.5107 5.02066 13.5695 5.17441C13.5863 4.24254 13.9538 3.27691 14.5145 2.59441C15.1032 1.88191 16.0782 1.36816 16.9745 1.13941Z" fill="black"/>
</g>
</g>
<defs>
<clipPath id="clip0_45_1202">
<rect width="24" height="24" fill="white"/>
</clipPath>
</defs>
</svg>
